<?xml version="1.0" encoding="UTF-8"?>
<svg id="Layer_1" data-name="Layer 1" xmlns="http://www.w3.org/2000/svg" viewBox="0 0 1366 768">
  <defs>
    <style>
      .cls-1 {
        fill: rgba(17, 17, 17, .05);
        stroke-width: 0px;
      }
    </style>
  </defs>
  <path class="cls-1" d="M41.1,164.91c-13.99-.58-34.02-.28-46.41,9.06-10.78,8.13-35.98,29.71-37.1,54.46-.84,18.58,2.34,31.22,10.32,40.96,6.28,7.71,13.34,11.77,20.92,12.08,5.48.23,11.31-1.49,17.33-5.11,5.23-3.14,10.33-7.16,15.74-11.41,1.44-1.13,2.89-2.27,4.33-3.39,9.89-7.64,21.73-16.1,37.28-19.93,1.6-.38,4.29-1.35,8.18-3.76,14.34-8.86,24.85-23.86,26.15-37.3.87-9.01-2.34-16.76-9.8-23.67-10.67-9.88-24.31-10.97-45.68-11.93l-1.26-.06Z"/>
  <path class="cls-1" d="M-77.64,447.74c-1.65,3.46-3.24,7.24-4.98,11.15-4.21,9.46-7.7,20.69-2.85,29.85,4.66,8.8,15.21,12.32,24.75,15.06,13.63,3.9,27.45,7.86,41.61,8.08,28.2.43,45.21-10.89,53.12-37.58,1.75-5.9,2.85-12.64-.33-17.91-3.54-5.86-10.99-7.76-17.67-9.14-21.8-4.51-42.64-10.12-64.1-15.66-17.06-4.4-23.7,3.82-29.56,16.15Z"/>
  <path class="cls-1" d="M-52.51,542.9c-22.38-.93-45.89,14.41-57.2,37.3-3.78,7.66-3.66,13.92.33,20.93,4,7.01,11.62,14.19,22.69,21.55,27.72,18.38,52.03,30.86,80.57,32.05,1.42.06,2.87.09,4.3.09,12.71.02,19.87-5.1,28.39-20.27,6.75-12.01,6.29-23.02-1.44-34.63-19.84-29.81-44.97-50.15-68.96-55.82-2.85-.67-5.76-1.07-8.69-1.19Z"/>
  <path class="cls-1" d="M148.74,284.21c-10.8,1.39-21.78,2.29-32.66,3.91-22.27,3.32-75.27,14.31-73.04,46.19.58,8.28,5.3,15.78,11.16,21.64,33.65,33.68,86.79,9.22,120.63-11.14,12.97-7.8,14.18-27.26,11.74-40.45-2.85-15.32-16.93-23.18-32.52-20.88-1.76.26-3.53.5-5.3.73Z"/>
  <path class="cls-1" d="M197.2,587.8c-29.31-2.55-63.02,5.89-86.37,14.46-16.55,6.08-32.9,14.62-43.85,28.51-37.58,47.65,24.45,81.1,64.82,86.61,1.22.17,2.47.27,3.69.33,7.99.3,15.87-1.87,22.59-6.22,10.92-6.95,22.24-12.26,33.19-17.4,5.21-2.44,10.13-4.76,15.01-7.23,18.22-9.23,32.65-17.54,38.98-33.23,6.93-17.17,1.7-46.33-14.28-55.9-9.72-5.82-21.35-8.86-33.77-9.93Z"/>
  <path class="cls-1" d="M154.82,73.74c-6.38,1.27-11.79,4.81-17.55,11.44-7.75,8.96-13.93,16.49-16.99,25.32-7.71,22.31-7.37,37.03,1.09,47.76,11.06,14.01,25.01,22.51,38.27,23.33,6.93.42,14.64-.72,22.79-1.92,1.48-.22,2.96-.44,4.43-.64,4.96-.7,9.87-1.22,14.6-1.73,7.3-.77,14.2-1.5,20.81-2.82,1.5-.3,2.95-.62,4.32-.96,10.99-2.74,22.51-6.21,32.33-13.05,17.17-11.93,22.44-32.5,12.82-50.03-11.79-21.48-30-35.74-51.3-40.21-2.5-.52-6.34-.22-10.41.09-1.7.13-3.45.27-5.3.36-10,.52-20.21,1.15-30.08,1.76-6.32.39-12.65.77-18.98,1.15-.27.05-.57.1-.87.17Z"/>
  <path class="cls-1" d="M172.84,398.99c-13.81-.58-26.48,4.7-37.67,15.67-15.96,15.67-32.06,33.9-47.84,54.19-13.96,17.95-9.91,53.45,7.87,69.08,2.51,2.21,4.67,3.52,6.44,3.89,6.05,1.29,11.99,2.79,17.72,4.24,12.31,3.11,23.94,6.05,34.96,6.51,1.67.07,3.3.08,4.87.03.44-.01.85,0,1.27,0l.66.03c1.19.1,2.41.17,3.63.22,12.53.52,24.61-1.31,37.4-3.26,2.58-.39,5.16-.78,7.74-1.15,16.97-2.44,29.88-10.35,39.49-24.18l2.34-3.37c6.77-9.76,13.17-18.98,19.11-28.58,3.9-6.3,6.73-14.56-1.83-28.15-17.38-27.6-42.83-47.62-77.81-61.19-5.86-2.34-12.06-3.69-18.35-4.02v.03Z"/>
  <path class="cls-1" d="M341.86,374.26c-3.07-.13-6.51.46-10.23,1.76-15.64,5.43-28.92,8.61-41.8,10.03-4.96.54-8.64,2.55-10.66,5.8-2.44,3.93-2.27,9.24.45,14.22,5.53,10.11,19.81,21.38,33.25,21.94,1.33.06,2.67,0,3.99-.18,5.65-.79,16.18-2.27,21.09-5.7,1.25-.87,2.62-1.78,4.08-2.75,2.34-1.55,4.75-3.16,7.08-4.86,6.1-4.47,7.73-6.87,8.16-7.9,2-4.8,1.16-13.42-2.13-21.96-3.81-9.92-10.88-10.26-13.25-10.36l-.03-.02Z"/>
  <path class="cls-1" d="M427.54,424.66c-6.88-1.42-15.02-1.17-24.87.75-4.88.96-10.51,3.75-15.41,6.29l-2.93,1.53c-4.12,2.17-8.38,4.42-12.94,6.38-4.39,1.89-8.63,4.11-13.12,6.45-1.71.9-3.45,1.81-5.23,2.71-11.65,5.94-18.21,15.16-17.98,25.31.21,9.64,6.76,18.61,17.96,24.61,25.55,13.69,54.15,21.82,89.24,29.82l.32.07c10.48,2.16,26.17-5.36,30.56-14.63,7.57-16.04,7.67-28.3.32-39.77l-1.21-1.89c-7.31-11.4-14.21-22.17-22.15-32.52-6.52-8.5-13.67-13.31-22.57-15.14h0Z"/>
  <path class="cls-1" d="M373.69,555.66c-40.11-1.67-62.24,22.17-73.74,42.43-6.88,12.14,2.07,36.78,21.02,46.34,19.79,9.98,35.21,14.82,49.99,15.7,30.75,1.83,59.84,8.74,84.68,15.08,4.72,1.25,9.56,2,14.44,2.26,9.28.39,16.52-1.74,21.52-6.32,5.64-5.16,9.06-13.81,9.89-24.99.08-1.05.12-2.21.14-3.42.03-.73.06-1.47.09-2.21.8-31.54-15.32-53.72-49.26-67.79-22.48-9.31-46.77-13.33-69.68-16.29-3.07-.4-6.14-.66-9.12-.78h.03Z"/>
  <path class="cls-1" d="M627.89,65.51c-2.1-1.05-4.28-1.94-6.52-2.68-12.27-4.03-27.26-.08-37.31,9.83-1.04,1.03-2.03,2.12-2.97,3.27-6.56,8.04-13.41,15.7-20.03,23.11-6.94,7.78-13.49,15.1-19.8,22.88-10.64,13.15-44.17,58.69-28.48,93.08,3.62,7.94,11.07,14.92,21.54,20.16,7.22,3.58,14.96,6.05,23.06,7.33,12.62,1.98,26.83-5.7,46.11-24.9,7.33-7.29,14.19-15.45,21.47-24.07,3.92-4.65,7.97-9.46,12.13-14.15,15.86-17.91,21.91-39.76,18.48-66.79-2.97-23.52-12.3-39.33-27.71-47.05l.04-.02Z"/>
  <path class="cls-1" d="M330.97,101.03c.18,4.2.62,8.39,1.33,12.54,2.08,11.99,7.81,20.48,17.05,25.24,47.04,24.2,82.86,24.78,116.12,1.86,12.97-8.94,18.96-19.7,18.34-32.91-.1-2.08-.35-4.14-.72-6.18-1.32-7.24-3.21-14.35-5.2-21.88-1.2-4.52-2.44-9.21-3.56-13.94-.81-3.45-2.91-7.57-12.27-11.93-24.95-11.61-50.65-17.11-76.38-16.35-19.19,1.13-33.83,6.34-46.07,16.4-3.22,2.65-7.52,6.5-7.61,9.28-.13,3.95-.33,7.89-.52,11.7-.46,9.08-.89,17.65-.49,26.18h0Z"/>
  <path class="cls-1" d="M945.31,196.82c-13.99-.58-34.02-.28-46.41,9.06-10.78,8.13-35.98,29.71-37.1,54.46-.84,18.58,2.34,31.21,10.32,40.96,6.28,7.71,13.34,11.77,20.92,12.08,5.48.23,11.31-1.49,17.33-5.11,5.23-3.14,10.33-7.16,15.74-11.4,1.44-1.13,2.89-2.27,4.33-3.39,9.89-7.64,21.73-16.1,37.28-19.93,1.6-.38,4.29-1.35,8.18-3.76,14.34-8.86,24.85-23.86,26.15-37.3.87-9.01-2.34-16.76-9.8-23.67-10.67-9.88-24.31-10.97-45.68-11.93l-1.26-.06Z"/>
  <path class="cls-1" d="M778.55,13.66c-9.12-.38-18.3,2.95-27.3,9.91-20.7,16-29.01,35.6-25.41,59.92,4.82,32.57,27.57,59,64.07,74.42,16.49,6.97,33.61,10.88,50.89,11.6,11.14.44,22.27-.39,33.02-2.49,9.59-1.85,17.24-8.73,20.46-18.41,2.65-7.95,2.35-19.24-6.49-27.09-14.02-12.46-24.67-26.3-32.57-42.33-9.55-19.39-25.08-36.39-50.34-55.12-6.09-4.51-15.6-9.98-26.34-10.43h0Z"/>
  <path class="cls-1" d="M791.05,384.08c-4.29,4.13-8.66,8.76-13.33,13.5-11.29,11.47-22.51,25.88-20.46,41.86,1.97,15.34,15.38,26.22,27.76,35.42,17.68,13.12,35.62,26.42,56.1,34.47,40.77,16.03,71.69,8.85,97.8-25.63,5.77-7.62,11.06-16.82,9.31-26.23-1.94-10.46-11.73-17.29-20.71-22.94-29.24-18.46-56.47-38.01-84.65-57.78-22.4-15.72-36.56-7.39-51.82,7.33Z"/>
  <path class="cls-1" d="M853.9,539.37c-22.38-.93-45.89,14.41-57.2,37.3-3.78,7.65-3.66,13.92.34,20.93,4,7.01,11.61,14.19,22.69,21.54,27.72,18.38,52.02,30.86,80.57,32.05,1.43.06,2.87.09,4.3.09,12.71.02,19.87-5.1,28.39-20.27,6.75-12.01,6.29-23.02-1.44-34.63-19.84-29.81-44.97-50.15-68.96-55.82-2.85-.67-5.76-1.07-8.69-1.19Z"/>
  <path class="cls-1" d="M570.02,359.8c-4.29-2.01-9.04-2.82-13.76-2.37-12.3,1.25-23.07,16.44-27.21,27.21-1.71,4.45-3.42,9.01-5.08,13.41-.72,1.92-1.44,3.84-2.17,5.76-.16.42-.33.85-.5,1.28-.24.55-.44,1.11-.62,1.69-1.34,5.64-1.06,10.13.8,12.61,1.82,2.43,5.47,3.08,8.21,3.19,1.27.05,2.54.01,3.81-.11,7.14-.66,14.31-.85,21.46-.56,2.65.11,5.35.3,8,.54.55.05,1.09.09,1.6.11,6.7.28,14.02-1.26,17.46-14.91,2.6-10.33,3.11-20.68,1.51-30.76-1.25-7.87-6.66-13.92-13.52-17.1Z"/>
  <path class="cls-1" d="M684.7,359.64c-4.7-.2-9.4.39-13.89,1.77-8.96,2.79-12.9,8.23-13.61,18.8-.17,2.58-.08,5.38.02,8.34.05,1.48.1,3.01.11,4.57,0,.08,0,.17-.01.25-.01,1.27-.03,2.55-.05,3.82-.13,7.78-.25,15.13,1.6,21.8,4.26,15.41,27.65,9.27,36.39,1.87,15.3-12.94,22.77-34.88,10.18-52.01-4-5.47-11.56-8.83-20.73-9.21Z"/>
  <path class="cls-1" d="M622.55,454.36c-11.83-.5-23.68-.28-35.48.68-22.07,1.83-37.37,11.9-46.79,30.79-2.67,5.36-5.6,10.3-8.44,15.09-4.03,6.8-7.83,13.22-10.26,19.81-10.69,28.92,1,62.66,27.18,78.51,10.39,6.28,21.2,7.47,34.89,8.97,5.35.59,10.88,1.19,16.7,2.16,10.64,1.77,20.38,4.98,29.8,8.09,8.21,2.71,15.97,5.26,23.65,6.64,4.71.81,9.47,1.31,14.25,1.48,10.37.43,21.48-.38,30.48-2.24,13.33-2.76,23.95-9.13,32.44-19.46,8.11-9.87,14.43-23.65,18.78-40.95,3.09-12.3,1.17-26.51-1.44-42.47-4.92-29.89-21.92-48.14-52.03-55.8-25.55-6.51-50.36-10.3-73.74-11.27h0Z"/>
  <path class="cls-1" d="M725.24,162.23c-5.02-.18-10.05.38-14.91,1.67-10.88,2.74-14.47,6-16.52,10.06-9.9,19.63-24.15,34.85-38.07,48.37-12.05,11.71-17.12,22.83-16.43,36.05.59,11.21,5.54,19.19,15.6,25.1,10.05,5.91,24.82,9.43,42.61,10.18,25.06,1.05,49.89-3.64,63.4-8.75,12.7-4.8,20.34-9.68,24.79-15.83,4.5-6.23,6.8-15.19,7.42-29.04.82-24.95-8.48-44.17-29.28-60.47-14.63-11.48-26.54-16.82-38.6-17.33h0Z"/>
  <path class="cls-1" d="M1030.25,360.78c-8.03,1.05-16.19,1.73-24.28,2.96-16.56,2.5-55.96,10.79-54.32,34.77.43,6.23,3.93,11.87,8.29,16.27,25,25.32,64.52,6.9,89.68-8.43,9.64-5.87,10.56-20.51,8.74-30.43-2.11-11.52-12.58-17.43-24.17-15.69-1.31.19-2.62.38-3.94.55Z"/>
  <path class="cls-1" d="M1076.42,624.45c-29.31-2.55-63.02,5.88-86.37,14.46-16.55,6.08-32.9,14.62-43.85,28.51-37.58,47.65,24.45,81.1,64.82,86.61,1.22.17,2.47.27,3.69.33,7.98.3,15.87-1.87,22.59-6.22,10.92-6.95,22.24-12.26,33.19-17.4,5.21-2.44,10.13-4.76,15.01-7.23,18.21-9.23,32.65-17.54,38.98-33.23,6.93-17.17,1.7-46.33-14.28-55.9-9.72-5.82-21.35-8.86-33.77-9.93Z"/>
  <path class="cls-1" d="M989.88,36.75c-6.38,1.27-11.79,4.81-17.55,11.44-7.75,8.96-13.93,16.49-16.99,25.32-7.71,22.31-7.37,37.03,1.09,47.76,11.06,14.01,25.01,22.51,38.27,23.33,6.93.42,14.64-.72,22.79-1.92,1.48-.22,2.96-.44,4.43-.64,4.96-.7,9.87-1.22,14.6-1.73,7.3-.77,14.2-1.5,20.81-2.82,1.5-.3,2.95-.62,4.32-.96,10.99-2.74,22.51-6.21,32.33-13.05,17.18-11.93,22.44-32.5,12.82-50.03-11.79-21.48-30-35.74-51.3-40.21-2.5-.52-6.34-.22-10.41.09-1.7.13-3.45.27-5.28.36-10,.52-20.21,1.15-30.08,1.76-6.32.39-12.65.77-18.98,1.15-.29.05-.59.1-.89.17Z"/>
  <path class="cls-1" d="M1052.06,435.64c-13.81-.58-26.48,4.7-37.67,15.67-15.96,15.67-32.06,33.9-47.84,54.19-13.96,17.95-9.91,53.45,7.87,69.08,2.52,2.21,4.67,3.52,6.44,3.89,6.05,1.29,11.99,2.79,17.72,4.24,12.31,3.11,23.94,6.05,34.96,6.51,1.67.07,3.3.08,4.87.03.44-.01.85,0,1.27,0l.65.03c1.19.1,2.41.17,3.63.22,12.52.52,24.61-1.31,37.4-3.26,2.58-.39,5.16-.78,7.74-1.15,16.97-2.44,29.88-10.35,39.49-24.18l2.34-3.37c6.77-9.76,13.17-18.98,19.11-28.58,3.91-6.3,6.73-14.56-1.83-28.15-17.38-27.6-42.83-47.62-77.8-61.19-5.86-2.34-12.06-3.69-18.35-4.02v.03Z"/>
  <path class="cls-1" d="M1219.62,182.4c-17.11-.71-33.92,1.95-54.11,5.46-6.68,1.16-13.47,1.59-20.24,1.28-5.44-.25-10.85-.85-16.21-1.79-7.85-1.35-14.58-2.12-20.6-2.37-15.61-.65-28.04,2.16-39.12,8.84-16.63,10.04-20.97,20.59-15.48,37.63,6.67,20.71,17.96,34.57,34.53,42.36,3.74,1.76,7.48,3.67,11.09,5.52,7.11,3.63,13.82,7.06,20.31,9.32,11.36,3.96,23.9,6.25,37.3,6.81,25.82,1.08,53.83-4.35,78.85-15.29,18.28-7.99,32.36-16.02,41.71-29.27,10.1-14.33,10.35-25.66.89-40.4-8.57-13.35-19.71-20.86-37.22-25.12-7.11-1.71-14.38-2.7-21.7-2.98h.01Z"/>
  <path class="cls-1" d="M1216.09,338.41c-5.26-.22-11.17.85-17.55,3.18-26.83,9.76-49.62,15.5-71.7,18.07-8.51.99-14.82,4.59-18.29,10.41-4.19,7.04-3.92,16.54.72,25.44,9.45,18.08,33.9,38.19,56.94,39.15,2.29.1,4.57-.02,6.84-.34,9.69-1.44,27.74-4.11,36.18-10.25,2.14-1.56,4.5-3.2,7.01-4.94,4.01-2.79,8.16-5.67,12.16-8.72,10.48-8.01,13.28-12.31,14.02-14.16,3.44-8.59,2.02-24.02-3.58-39.29-6.5-17.74-18.62-18.33-22.68-18.5l-.06-.03Z"/>
  <path class="cls-1" d="M1308.11,429.93c-7.24-1.51-15.8-1.24-26.17.82-5.14,1.02-11.07,4.01-16.22,6.74l-3.08,1.64c-4.34,2.32-8.82,4.72-13.62,6.83-4.62,2.02-9.08,4.4-13.81,6.9-1.8.96-3.63,1.93-5.51,2.9-12.26,6.35-19.17,16.22-18.94,27.06.22,10.3,7.1,19.89,18.88,26.29,26.88,14.62,56.97,23.29,93.9,31.82l.32.07c11.03,2.3,27.56-5.74,32.17-15.66,7.99-17.15,8.09-30.25.37-42.51l-1.27-2.02c-7.69-12.18-14.94-23.69-23.29-34.74-6.86-9.08-14.38-14.21-23.74-16.16h-.01Z"/>
  <path class="cls-1" d="M1240.97,561.92c-40.11-1.67-62.24,22.17-73.73,42.43-6.88,12.14,2.07,36.78,21.02,46.34,19.79,9.98,35.21,14.82,49.99,15.7,30.75,1.83,59.84,8.74,84.68,15.08,4.72,1.25,9.56,2,14.44,2.26,9.28.39,16.52-1.74,21.52-6.32,5.64-5.16,9.06-13.81,9.9-24.99.08-1.05.12-2.21.14-3.42.03-.73.06-1.47.09-2.21.8-31.54-15.32-53.72-49.26-67.79-22.48-9.31-46.77-13.33-69.68-16.29-3.07-.4-6.14-.66-9.12-.78h.03Z"/>
  <path class="cls-1" d="M1416.19,115.41c-2.46-.1-4.93-.06-7.38.12-13.45.99-26,8.88-31.21,19.64-.54,1.11-1.01,2.26-1.4,3.43-2.72,8.2-5.88,16.22-8.92,23.97-3.21,8.13-6.23,15.79-8.82,23.73-4.35,13.39-16.29,58.68,13.74,79.43,6.93,4.79,17.09,7.6,29.36,8.11,8.45.33,16.9-.36,25.18-2.05,12.89-2.65,23.04-13.1,32.98-33.88,3.77-7.9,6.73-16.29,9.87-25.17,1.68-4.79,3.44-9.73,5.33-14.64,7.25-18.69,3.42-37.13-11.71-56.35-13.15-16.74-28.98-25.58-47.04-26.33l.03-.03Z"/>
  <path class="cls-1" d="M1187.65,93.37c.18,4.2.62,8.39,1.33,12.54,2.08,11.99,7.81,20.48,17.05,25.24,47.04,24.21,82.86,24.78,116.12,1.86,12.97-8.94,18.96-19.7,18.35-32.91-.1-2.08-.35-4.14-.72-6.19-1.34-7.23-3.21-14.35-5.21-21.88-1.21-4.52-2.44-9.21-3.56-13.94-.81-3.45-2.91-7.57-12.27-11.93-24.96-11.61-50.65-17.11-76.39-16.35-19.19,1.13-33.83,6.34-46.07,16.4-3.22,2.65-7.52,6.5-7.61,9.28-.13,3.95-.33,7.89-.52,11.7-.46,9.08-.89,17.65-.49,26.18h0Z"/>
  <path class="cls-1" d="M1360.44,341.54c-5.08-.21-10.91,3.52-15.56,9.99-7.13,9.89-9.49,23.03-5.85,32.69,3.58,9.55,8.92,19.11,15.89,28.45,3.33,4.47,7.38,7.03,11.37,7.19,4.65.19,9.31-2.7,13.15-8.14,7.81-11.09,15.44-23.15,15.74-37.82,0-.18.01-.37.03-.55.96-16.58-5.83-22.01-12.61-25.15-8.24-3.82-15.29-5.98-21.54-6.61-.21,0-.4-.02-.6-.02v-.02Z"/>
  <path class="cls-1" d="M396.77,199.46c-16.39,1.02-32.15,5.25-51.06,10.65-6.26,1.78-12.7,2.88-19.19,3.25-5.21.3-10.43.27-15.64-.1-7.62-.51-14.12-.58-19.88-.22-14.95.93-26.53,4.87-36.43,12.4-14.86,11.3-17.94,21.86-11,37.68,8.43,19.22,20.59,31.4,37.18,37.23,3.75,1.32,7.5,2.78,11.13,4.19,7.14,2.77,13.89,5.4,20.3,6.92,11.23,2.67,23.43,3.62,36.26,2.82,24.74-1.55,50.91-9.56,73.67-22.56,16.65-9.5,29.26-18.62,36.85-32.27,8.2-14.77,7.3-25.68-3.2-38.89-9.51-11.96-20.89-18.07-38.02-20.4-6.96-.93-13.99-1.16-20.99-.69h.03Z"/>
</svg>